<svg id="Layer_1" data-name="Layer 1" xmlns="http://www.w3.org/2000/svg" viewBox="0 0 50 50"><title>moviebase</title><circle cx="25" cy="25" r="24" style="fill:#be123c"/><path d="M14.16,38.59a0,0,0,1,0,.07,0v-24a0,0,0,1,0-.07,0Z" style="fill:none;stroke:#fff;stroke-miterlimit:10;stroke-width:3px"/><path d="M35.77,38.59a0,0,0,1,0,.07,0v-24a0,0,0,1,0-.07,0Z" style="fill:none;stroke:#fff;stroke-miterlimit:10;stroke-width:3px"/><path d="M14.17,14.64A10.77,10.77,0,0,0,25.08,25.08,11.15,11.15,0,0,0,35.83,14.63" style="fill:none;stroke:#fff;stroke-miterlimit:10;stroke-width:3px"/><circle cx="25" cy="13.89" r="4.26" style="fill:none;stroke:#fff;stroke-miterlimit:10;stroke-width:3px"/><rect x="20.36" y="31.04" width="9.28" height="6.85" rx="0.89" ry="0.89" style="fill:none;stroke:#fff;stroke-miterlimit:10;stroke-width:3px"/></svg>